<?xml version="1.0" encoding="UTF-8"?>
<!--Generator: Apple Native CoreSVG 326-->
<!DOCTYPE svg
PUBLIC "-//W3C//DTD SVG 1.1//EN"
       "http://www.w3.org/Graphics/SVG/1.1/DTD/svg11.dtd">
<svg version="1.1" xmlns="http://www.w3.org/2000/svg" xmlns:xlink="http://www.w3.org/1999/xlink" viewBox="0 0 394.526 544.736">
 <g>
  <rect height="544.736" opacity="0" width="394.526" x="0" y="0"/>
  <path d="M394.526 272.246C394.438 262.705 390.961 254.956 383.681 247.964L136.264 9.01359C130.263 3.01267 122.91 0 114.14 0C96.5574 0 82.4755 13.5936 82.4755 31.2888C82.4755 39.8141 85.996 47.8072 92.1043 53.8276L318.74 272.158L92.1043 490.42C86.0399 496.484 82.4755 504.189 82.4755 513.003C82.4755 530.698 96.5574 544.536 114.14 544.536C122.822 544.536 130.263 541.323 136.264 535.478L383.681 296.528C391.005 289.292 394.526 281.499 394.526 272.246Z" fill="currentColor"/>
 </g>
</svg>
