<?xml version="1.0" encoding="UTF-8"?>
<!--Generator: Apple Native CoreSVG 326-->
<!DOCTYPE svg
PUBLIC "-//W3C//DTD SVG 1.1//EN"
       "http://www.w3.org/Graphics/SVG/1.1/DTD/svg11.dtd">
<svg version="1.1" xmlns="http://www.w3.org/2000/svg" xmlns:xlink="http://www.w3.org/1999/xlink" viewBox="0 0 581.753 581.797">
 <g>
  <rect height="581.797" opacity="0" width="581.753" x="0" y="0"/>
  <path d="M99.409 581.753L482.143 581.753C547.705 581.753 581.753 547.749 581.753 483.232L581.753 98.7205C581.753 34.0038 547.705 0 482.143 0L99.409 0C34.0478 0 0 33.8036 0 98.7205L0 483.232C0 548.149 34.0478 581.753 99.409 581.753Z" fill="white" fill-opacity="0.5"/>
  <path d="M218.774 450.835C208.823 440.796 209.243 425.303 218.818 416.26L350.913 291.02L218.818 166.069C208.999 156.782 209.199 140.825 219.15 131.294C228.393 122.715 243.31 122.783 253.173 132.314L388.847 260.513C406.43 277.031 406.23 305.298 388.847 321.616L253.173 449.902C244.218 458.681 227.197 458.926 218.774 450.835Z" fill="#1e1e1e" fill-opacity="0.6"/>
 </g>
</svg>
