<?xml version="1.0" encoding="UTF-8"?>
<!--Generator: Apple Native CoreSVG 326-->
<!DOCTYPE svg
PUBLIC "-//W3C//DTD SVG 1.1//EN"
       "http://www.w3.org/Graphics/SVG/1.1/DTD/svg11.dtd">
<svg version="1.1" xmlns="http://www.w3.org/2000/svg" xmlns:xlink="http://www.w3.org/1999/xlink" viewBox="0 0 533.203 323.975">
 <g>
  <rect height="323.975" opacity="0" width="533.203" x="0" y="0"/>
  <path d="M266.602 323.975C273.682 323.975 280.273 320.801 285.156 315.43L525.879 64.6973C530.518 60.0586 533.203 54.1992 533.203 47.3633C533.203 33.6914 522.705 23.1934 508.789 23.1934C502.441 23.1934 496.094 25.6348 491.455 30.0293L251.709 279.541L281.738 279.541L41.5039 30.0293C37.1094 25.6348 31.0059 23.1934 24.4141 23.1934C10.498 23.1934 0 33.6914 0 47.3633C0 54.1992 2.92969 60.0586 7.32422 64.9414L248.047 315.674C253.418 320.801 259.521 323.975 266.602 323.975Z" fill="currentColor"/>
 </g>
</svg>
