<?xml version="1.0" encoding="UTF-8"?>
<!--Generator: Apple Native CoreSVG 326-->
<!DOCTYPE svg
PUBLIC "-//W3C//DTD SVG 1.1//EN"
       "http://www.w3.org/Graphics/SVG/1.1/DTD/svg11.dtd">
<svg version="1.1" xmlns="http://www.w3.org/2000/svg" xmlns:xlink="http://www.w3.org/1999/xlink" viewBox="0 0 581.753 581.797">
 <g>
  <rect height="581.797" opacity="0" width="581.753" x="0" y="0"/>
  <path id="navIconLayer1" d="M99.409 581.753L482.143 581.753C547.705 581.753 581.753 547.749 581.753 483.232L581.753 98.7205C581.753 34.0038 547.705 0 482.143 0L99.409 0C34.0478 0 0 33.8036 0 98.7205L0 483.232C0 548.149 34.0478 581.753 99.409 581.753Z" fill="white" fill-opacity="0.5"/>
  <path id="navIconLayer2" d="M354.101 447.124C345.722 455.215 329.346 454.97 320.591 446.391L187.783 320.527C170.644 304.653 170.644 277.275 187.783 261.201L320.591 135.381C330.21 126.138 344.726 126.025 353.725 134.648C363.476 143.735 363.72 159.448 354.057 168.291L224.829 290.62L354.057 413.237C363.432 422.236 363.852 437.529 354.101 447.124Z" fill="#1e1e1e" fill-opacity="0.6"/>
 </g>
</svg>
