<?xml version="1.0" encoding="UTF-8"?>
<!--Generator: Apple Native CoreSVG 326-->
<!DOCTYPE svg
PUBLIC "-//W3C//DTD SVG 1.1//EN"
       "http://www.w3.org/Graphics/SVG/1.1/DTD/svg11.dtd">
<svg version="1.1" xmlns="http://www.w3.org/2000/svg" xmlns:xlink="http://www.w3.org/1999/xlink" viewBox="0 0 618.164 586.67">
 <g>
  <rect height="586.67" opacity="0" width="618.164" x="0" y="0"/>
  <path d="M0 203.857C0 336.426 113.77 466.309 288.574 578.857C294.678 582.764 303.223 586.67 309.082 586.67C315.186 586.67 323.73 582.764 329.834 578.857C504.395 466.309 618.164 336.426 618.164 203.857C618.164 94.9707 543.213 17.334 442.871 17.334C385.498 17.334 336.67 46.1426 309.082 90.332C281.738 46.3867 232.91 17.334 175.293 17.334C74.9512 17.334 0 94.9707 0 203.857ZM43.2129 203.857C43.2129 118.408 99.1211 60.5469 174.805 60.5469C233.643 60.5469 269.043 97.168 290.283 131.592C297.607 142.822 302.49 146.24 309.082 146.24C315.918 146.24 320.068 142.578 328.125 131.592C350.342 97.6562 384.766 60.5469 443.359 60.5469C519.043 60.5469 574.951 118.408 574.951 203.857C574.951 321.777 451.416 447.266 314.941 538.086C312.256 539.795 310.303 541.26 309.082 541.26C307.861 541.26 305.908 539.795 303.223 538.086C166.748 447.266 43.2129 321.777 43.2129 203.857Z" fill="currentColor"/>
 </g>
</svg>
