<?xml version="1.0" encoding="UTF-8"?>
<!--Generator: Apple Native CoreSVG 326-->
<!DOCTYPE svg
PUBLIC "-//W3C//DTD SVG 1.1//EN"
       "http://www.w3.org/Graphics/SVG/1.1/DTD/svg11.dtd">
<svg version="1.1" xmlns="http://www.w3.org/2000/svg" xmlns:xlink="http://www.w3.org/1999/xlink" viewBox="0 0 644.028 644.472">
 <g>
  <rect height="644.472" opacity="0" width="644.028" x="0" y="0"/>
  <path d="M321.914 644.028C499.692 644.028 644.028 499.848 644.028 322.114C644.028 144.336 499.692 0 321.914 0C144.136 0 0 144.336 0 322.114C0 499.848 144.136 644.028 321.914 644.028ZM321.914 588.379C174.707 588.379 55.649 469.321 55.649 322.114C55.649 174.907 174.707 55.8053 321.914 55.8053C469.121 55.8053 588.179 174.907 588.179 322.114C588.179 469.321 469.121 588.379 321.914 588.379ZM532.383 528.74L531.431 524.272C511.465 478.73 431.978 429.521 321.914 429.521C212.207 429.521 132.719 478.53 112.353 523.872L111.445 528.74C169.907 583.862 257.817 615.137 322.114 615.137C386.367 615.137 473.076 584.463 532.383 528.74ZM321.914 377.173C382.724 377.617 429.975 325.595 429.975 258.257C429.975 194.824 382.236 141.782 321.914 141.782C261.548 141.782 213.52 194.824 213.808 258.257C214.053 325.595 261.059 376.728 321.914 377.173Z" fill="currentColor"/>
 </g>
</svg>
