<?xml version="1.0" encoding="UTF-8"?>
<!--Generator: Apple Native CoreSVG 326-->
<!DOCTYPE svg
PUBLIC "-//W3C//DTD SVG 1.1//EN"
       "http://www.w3.org/Graphics/SVG/1.1/DTD/svg11.dtd">
<svg version="1.1" xmlns="http://www.w3.org/2000/svg" xmlns:xlink="http://www.w3.org/1999/xlink" viewBox="0 0 776.611 627.197">
 <g>
  <rect height="627.197" opacity="0" width="776.611" x="0" y="0"/>
  <path d="M625 93.9941L625 140.381L581.787 140.381L581.787 96.4355C581.787 61.2793 562.5 43.2129 529.053 43.2129L95.9473 43.2129C61.7676 43.2129 43.2129 61.2793 43.2129 96.4355L43.2129 390.381C43.2129 425.537 61.7676 443.604 95.9473 443.604L151.611 443.604L151.611 486.816L94.9707 486.816C31.7383 486.816 0 455.322 0 392.822L0 93.9941C0 31.7383 31.7383 0 94.9707 0L530.029 0C592.773 0 625 31.9824 625 93.9941Z" fill="currentColor"/>
  <path d="M375.244 380.127C412.109 380.127 442.139 349.609 442.139 312.5C442.139 276.123 412.109 245.361 375.244 245.361C338.135 245.361 308.35 276.123 308.35 312.5C308.35 349.609 338.135 380.127 375.244 380.127ZM247.07 612.061L675.781 612.061C728.76 612.061 756.348 585.205 756.348 532.227L756.348 510.254L611.328 374.023C598.633 362.305 583.496 356.201 567.627 356.201C551.514 356.201 537.842 361.816 524.17 373.779L396.484 486.084L346.436 440.43C334.229 429.443 321.777 424.072 307.617 424.072C294.922 424.072 283.447 429.443 271.24 440.186L166.26 532.471C166.26 585.205 194.092 612.061 247.07 612.061ZM246.582 627.197L681.396 627.197C744.385 627.197 776.611 595.215 776.611 533.203L776.611 234.375C776.611 172.363 744.385 140.381 681.396 140.381L246.582 140.381C183.35 140.381 151.611 172.119 151.611 234.375L151.611 533.203C151.611 595.703 183.35 627.197 246.582 627.197ZM247.314 583.984C213.379 583.984 194.824 565.918 194.824 531.006L194.824 236.816C194.824 201.66 213.379 183.594 247.314 183.594L680.664 183.594C714.111 183.594 733.154 201.66 733.154 236.816L733.154 531.006C733.154 565.918 714.111 583.984 680.664 583.984Z" fill="currentColor"/>
 </g>
</svg>
