<?xml version="1.0" encoding="UTF-8"?>
<!--Generator: Apple Native CoreSVG 326-->
<!DOCTYPE svg
PUBLIC "-//W3C//DTD SVG 1.1//EN"
       "http://www.w3.org/Graphics/SVG/1.1/DTD/svg11.dtd">
<svg version="1.1" xmlns="http://www.w3.org/2000/svg" xmlns:xlink="http://www.w3.org/1999/xlink" viewBox="0 0 764.648 789.795">
 <g>
  <rect height="789.795" opacity="0" width="764.648" x="0" y="0"/>
  <path d="M581.383 86.9141L183.507 86.9141C185.072 64.7942 199.433 52.002 222.9 52.002L541.748 52.002C565.216 52.002 579.794 64.7942 581.383 86.9141Z" fill="currentColor"/>
  <path d="M644.392 172.359C635.64 171.022 626.369 170.41 616.699 170.41L147.949 170.41C138.276 170.41 129.006 171.016 120.258 172.344C123.579 146.385 141.466 131.836 170.166 131.836L594.482 131.836C623.188 131.836 641.077 146.39 644.392 172.359Z" fill="currentColor"/>
  <path d="M147.949 737.061L616.699 737.061C679.688 737.061 711.67 705.078 711.67 642.822L711.67 317.383C711.67 255.127 679.688 223.389 616.699 223.389L147.949 223.389C84.7168 223.389 52.9785 254.883 52.9785 317.383L52.9785 642.822C52.9785 705.322 84.7168 737.061 147.949 737.061ZM148.682 693.848C114.746 693.848 96.1914 675.781 96.1914 640.625L96.1914 319.58C96.1914 284.668 114.746 266.602 148.682 266.602L615.967 266.602C649.414 266.602 668.457 284.668 668.457 319.58L668.457 640.625C668.457 675.781 649.414 693.848 615.967 693.848Z" fill="currentColor"/>
 </g>
</svg>
