<?xml version="1.0" encoding="UTF-8"?>
<!--Generator: Apple Native CoreSVG 326-->
<!DOCTYPE svg
PUBLIC "-//W3C//DTD SVG 1.1//EN"
       "http://www.w3.org/Graphics/SVG/1.1/DTD/svg11.dtd">
<svg version="1.1" xmlns="http://www.w3.org/2000/svg" xmlns:xlink="http://www.w3.org/1999/xlink" viewBox="0 0 552.246 831.299">
 <g>
  <rect height="831.299" opacity="0" width="552.246" x="0" y="0"/>
  <path d="M552.246 341.553L552.246 654.541C552.246 716.553 520.508 748.535 457.275 748.535L94.9707 748.535C31.9824 748.535 0 717.041 0 654.541L0 341.553C0 279.053 31.9824 247.314 94.9707 247.314L199.707 247.314L199.707 290.771L95.9473 290.771C61.7676 290.771 43.2129 308.838 43.2129 343.75L43.2129 652.1C43.2129 687.256 61.7676 705.322 95.9473 705.322L456.299 705.322C489.746 705.322 509.033 687.256 509.033 652.1L509.033 343.75C509.033 308.838 489.746 290.771 456.299 290.771L352.539 290.771L352.539 247.314L457.275 247.314C520.508 247.314 552.246 279.297 552.246 341.553Z" fill="currentColor"/>
  <path d="M276.123 504.639C287.598 504.639 297.607 495.117 297.607 483.643L297.607 156.25L295.898 110.107L315.186 130.127L368.164 185.791C372.07 190.186 377.686 192.383 382.812 192.383C394.043 192.383 402.588 184.326 402.588 173.34C402.588 167.725 400.146 163.33 396.24 159.18L291.748 57.6172C286.377 52.2461 281.494 50.5371 276.123 50.5371C270.752 50.5371 265.869 52.2461 260.498 57.6172L156.006 159.18C151.855 163.33 149.658 167.725 149.658 173.34C149.658 184.326 157.715 192.383 168.945 192.383C174.072 192.383 179.932 190.186 183.838 185.791L237.061 130.127L256.348 109.863L254.639 156.25L254.639 483.643C254.639 495.117 264.648 504.639 276.123 504.639Z" fill="currentColor"/>
 </g>
</svg>
