<?xml version="1.0" encoding="UTF-8"?>
<!--Generator: Apple Native CoreSVG 326-->
<!DOCTYPE svg
PUBLIC "-//W3C//DTD SVG 1.1//EN"
       "http://www.w3.org/Graphics/SVG/1.1/DTD/svg11.dtd">
<svg version="1.1" xmlns="http://www.w3.org/2000/svg" xmlns:xlink="http://www.w3.org/1999/xlink" viewBox="0 0 644.028 644.472">
 <g>
  <rect height="644.472" opacity="0" width="644.028" x="0" y="0"/>
  <path d="M321.914 644.028C499.492 644.028 644.028 499.448 644.028 322.114C644.028 144.536 499.492 0 321.914 0C144.536 0 0 144.536 0 322.114C0 499.448 144.536 644.028 321.914 644.028Z" fill="white" fill-opacity="0.5"/>
  <path d="M217.89 452.646C203.33 452.646 191.738 441.055 191.738 426.206C191.738 419.512 194.575 412.93 199.673 407.92L285.103 322.446L199.673 236.928C194.575 231.919 191.738 225.537 191.738 218.642C191.738 203.994 203.33 192.847 217.89 192.847C225.425 192.847 231.274 195.395 236.416 200.493L321.914 285.791L407.9 200.293C413.486 194.707 419.292 192.402 426.626 192.402C440.986 192.402 452.534 203.75 452.534 218.198C452.534 225.337 450.342 231.23 444.8 236.728L359.213 322.446L444.599 407.676C449.897 412.729 452.334 419.268 452.334 426.206C452.334 441.055 440.786 452.646 426.182 452.646C418.603 452.646 412.153 449.897 407.012 444.756L321.914 359.546L237.06 444.756C231.919 449.897 225.425 452.646 217.89 452.646Z" fill="#1e1e1e" fill-opacity="0.6"/>
 </g>
</svg>
